<svg xmlns="http://www.w3.org/2000/svg" xmlns:xlink="http://www.w3.org/1999/xlink" enable-background="new 0 0 32 32" height="32" version="1.1" width="32" xml:space="preserve" style=""><rect id="backgroundrect" width="100%" height="100%" x="0" y="0" fill="none" stroke="none"/><g class="currentLayer" style=""><title>Layer 1</title><g id="Settings" class="selected" fill-opacity="1" fill="#55a834"><path d="M1,7h30c0.552,0,1-0.448,1-1c0-0.552-0.448-1-1-1H1C0.448,5,0,5.448,0,6C0,6.552,0.448,7,1,7z" fill="#55a834" id="svg_1"/><path d="M31,25H1c-0.552,0-1,0.448-1,1c0,0.552,0.448,1,1,1h30c0.552,0,1-0.448,1-1C32,25.448,31.552,25,31,25z" fill="#55a834" id="svg_2"/><path d="M28,12c-1.862,0-3.413,1.278-3.859,3H1c-0.552,0-1,0.448-1,1c0,0.552,0.448,1,1,1h23.141   c0.446,1.722,1.997,3,3.859,3c2.209,0,4-1.791,4-4C32,13.791,30.209,12,28,12z M28,18c-1.105,0-2-0.896-2-2c0-1.104,0.895-2,2-2   s2,0.895,2,2C30,17.104,29.105,18,28,18z" fill="#55a834" id="svg_3"/></g><g id="svg_4"/><g id="svg_5"/><g id="svg_6"/><g id="svg_7"/><g id="svg_8"/><g id="svg_9"/></g></svg>